<?xml version="1.0" encoding="UTF-8" standalone="no"?>
<!-- Created with Inkscape (http://www.inkscape.org/) -->

<svg
   xmlns:dc="http://purl.org/dc/elements/1.1/"
   xmlns:cc="http://creativecommons.org/ns#"
   xmlns:rdf="http://www.w3.org/1999/02/22-rdf-syntax-ns#"
   xmlns:svg="http://www.w3.org/2000/svg"
   xmlns="http://www.w3.org/2000/svg"
   xmlns:sodipodi="http://sodipodi.sourceforge.net/DTD/sodipodi-0.dtd"
   xmlns:inkscape="http://www.inkscape.org/namespaces/inkscape"
   width="512"
   height="512"
   id="svg2"
   version="1.1"
   inkscape:version="0.48.4 r9939"
   sodipodi:docname="shortcut.svg"
   inkscape:export-filename="A:\mental-health\src\main\webapp\img\apple-touch-icon-152.png"
   inkscape:export-xdpi="26.71875"
   inkscape:export-ydpi="26.71875">
  <defs
     id="defs4" />
  <sodipodi:namedview
     id="base"
     pagecolor="#ffffff"
     bordercolor="#666666"
     borderopacity="1.0"
     inkscape:pageopacity="0.0"
     inkscape:pageshadow="2"
     inkscape:zoom="1.0976562"
     inkscape:cx="264.3274"
     inkscape:cy="256"
     inkscape:document-units="px"
     inkscape:current-layer="layer1"
     showgrid="false"
     inkscape:window-width="1024"
     inkscape:window-height="1258"
     inkscape:window-x="1016"
     inkscape:window-y="-8"
     inkscape:window-maximized="1" />
  <metadata
     id="metadata7">
    <rdf:RDF>
      <cc:Work
         rdf:about="">
        <dc:format>image/svg+xml</dc:format>
        <dc:type
           rdf:resource="http://purl.org/dc/dcmitype/StillImage" />
        <dc:title></dc:title>
      </cc:Work>
    </rdf:RDF>
  </metadata>
  <g
     inkscape:label="Layer 1"
     inkscape:groupmode="layer"
     id="layer1"
     transform="translate(0,-540.36218)">
    <rect
       style="fill:#0a99c8;fill-rule:evenodd;stroke:#000000;stroke-width:1.09495687000000010px;stroke-linecap:butt;stroke-linejoin:miter;stroke-opacity:1;fill-opacity:1"
       id="rect3793"
       width="510.82019"
       height="510.9838"
       x="0.58990479"
       y="540.8703" />
    <g
       id="g2986"
       transform="matrix(2.6845638,0,0,2.6845638,55.999997,584.75869)"
       style="fill:#ffffff;fill-opacity:1;stroke:#0a99c8;stroke-opacity:1">
	<g
   id="g2988"
   style="fill:#ffffff;fill-opacity:1;stroke:#0a99c8;stroke-opacity:1">
		<g
   id="g2990"
   style="fill:#ffffff;fill-opacity:1;stroke:#0a99c8;stroke-opacity:1">
			<polygon
   id="polygon2992"
   points="34.1,1.2 31,4.3 31,16.7 15.5,1.2 3.1,1.2 0,4.3 0,47.7 3.1,50.8 15.5,50.8 18.6,47.7 18.6,35.3 34.1,50.8 46.6,50.8 49.7,47.7 49.7,4.3 46.6,1.2 "
   style="fill:#ffffff;fill-opacity:1;stroke:#0a99c8;stroke-opacity:1" />

		</g>

	</g>

	<g
   id="g2994"
   style="fill:#ffffff;fill-opacity:1;stroke:#0a99c8;stroke-opacity:1">
		<g
   id="g2996"
   style="fill:#ffffff;fill-opacity:1;stroke:#0a99c8;stroke-opacity:1">
			<polyline
   id="polyline2998"
   points="49.7,22.9 65.2,38.4 65.2,47.7 68.3,50.8 80.7,50.8 83.8,47.7 83.8,38.4 99.3,22.9 99.3,10.5      99.3,4.3 96.2,1.2 83.8,1.2 80.7,4.3 80.7,10.5 74.5,16.7 68.3,10.5 68.3,4.3 65.2,1.2 52.8,1.2 49.7,4.3    "
   style="fill:#ffffff;fill-opacity:1;stroke:#0a99c8;stroke-opacity:1" />

		</g>

	</g>

	<g
   id="g3000"
   style="fill:#ffffff;fill-opacity:1;stroke:#0a99c8;stroke-opacity:1">
		<g
   id="g3002"
   style="fill:#ffffff;fill-opacity:1;stroke:#0a99c8;stroke-opacity:1">
			<g
   id="g3004"
   style="fill:#ffffff;fill-opacity:1;stroke:#0a99c8;stroke-opacity:1">
				<polyline
   id="polyline3006"
   points="99.3,41.5 108.6,50.8 139.7,50.8 149,41.5 149,32.2 145.9,29.1 130.4,29.1 130.4,32.2       118,32.2 118,19.8 130.4,19.8 130.4,22.9 145.9,22.9 149,19.8 149,10.5 139.7,1.2 108.6,1.2 99.3,10.5     "
   style="fill:#ffffff;fill-opacity:1;stroke:#0a99c8;stroke-opacity:1" />

			</g>

		</g>

	</g>

</g>
    <text
       xml:space="preserve"
       style="font-size:68px;font-style:normal;font-variant:normal;font-weight:900;font-stretch:normal;text-align:center;line-height:125%;letter-spacing:0px;word-spacing:0px;writing-mode:lr-tb;text-anchor:middle;fill:#ffffff;fill-opacity:1;stroke:none;font-family:HelveticaNeueLT Std Blk;-inkscape-font-specification:HelveticaNeueLT Std Blk Heavy"
       x="255.94716"
       y="799.09528"
       id="text3795"
       sodipodi:linespacing="125%"><tspan
         sodipodi:role="line"
         id="tspan3797"
         x="255.94716"
         y="799.09528">Mental Health</tspan><tspan
         sodipodi:role="line"
         x="255.94716"
         y="884.09528"
         id="tspan3799">Sevice Finder</tspan><tspan
         sodipodi:role="line"
         x="255.94716"
         y="969.09528"
         id="tspan3801">(beta)</tspan></text>
  </g>
</svg>
